<?xml version="1.0" encoding="UTF-8" standalone="no"?>
<!-- Created with Inkscape (http://www.inkscape.org/) -->

<svg
   width="87.221519mm"
   height="72.960434mm"
   viewBox="0 0 87.221519 72.960434"
   version="1.1"
   id="svg367"
   sodipodi:docname="orvify-logo-2000.svg"
   inkscape:version="1.2.2 (b0a84865, 2022-12-01)"
   xmlns:inkscape="http://www.inkscape.org/namespaces/inkscape"
   xmlns:sodipodi="http://sodipodi.sourceforge.net/DTD/sodipodi-0.dtd"
   xmlns="http://www.w3.org/2000/svg"
   xmlns:svg="http://www.w3.org/2000/svg">
  <sodipodi:namedview
     id="namedview369"
     pagecolor="#ffffff"
     bordercolor="#000000"
     borderopacity="0.25"
     inkscape:showpageshadow="2"
     inkscape:pageopacity="0.0"
     inkscape:pagecheckerboard="0"
     inkscape:deskcolor="#d1d1d1"
     inkscape:document-units="mm"
     showgrid="false"
     inkscape:zoom="0.85582916"
     inkscape:cx="171.17902"
     inkscape:cy="144.3045"
     inkscape:window-width="1616"
     inkscape:window-height="799"
     inkscape:window-x="0"
     inkscape:window-y="1177"
     inkscape:window-maximized="0"
     inkscape:current-layer="layer1" />
  <defs
     id="defs364">
    <clipPath
       clipPathUnits="userSpaceOnUse"
       id="clipPath144">
      <path
         d="M 0,272.817 H 313.242 V 0 H 0 Z"
         id="path142" />
    </clipPath>
  </defs>
  <g
     inkscape:label="Layer 1"
     inkscape:groupmode="layer"
     id="layer1"
     transform="translate(194.62772,-109.50284)">
    <g
       id="g138"
       transform="matrix(0.35277777,0,0,-0.35277777,-206.26945,194.10508)">
      <g
         id="g140"
         clip-path="url(#clipPath144)">
        <g
           id="g146"
           transform="translate(136.4092,46.8082)">
          <path
             d="m 0,0 c -49.406,0 -89.602,40.195 -89.602,89.601 0,49.405 40.196,89.6 89.602,89.6 36.363,0 67.734,-21.774 81.766,-52.97 h 5.738 c -0.04,0.096 -0.078,0.191 -0.119,0.286 -4.778,11.294 -11.615,21.436 -20.323,30.145 -8.71,8.71 -18.852,15.548 -30.145,20.325 -11.694,4.946 -24.116,7.453 -36.917,7.453 -12.803,0 -25.224,-2.507 -36.917,-7.453 -11.294,-4.777 -21.437,-11.615 -30.146,-20.325 -8.708,-8.709 -15.546,-18.851 -20.323,-30.145 -4.946,-11.694 -7.454,-24.115 -7.454,-36.916 0,-12.802 2.508,-25.223 7.454,-36.917 4.777,-11.294 11.615,-21.436 20.323,-30.145 8.709,-8.71 18.852,-15.548 30.146,-20.324 11.693,-4.946 24.114,-7.454 36.917,-7.454 12.801,0 25.223,2.508 36.917,7.454 11.293,4.776 21.435,11.614 30.144,20.324 8.709,8.709 15.546,18.851 20.324,30.145 0.041,0.095 0.079,0.191 0.119,0.286 H 81.766 C 67.734,21.775 36.363,0 0,0"
             style="fill:#231f20;fill-opacity:1;fill-rule:nonzero;stroke:none"
             id="path148" />
        </g>
        <g
           id="g150"
           transform="translate(136.4092,35.4664)">
          <path
             d="m 0,0 c -55.66,0 -100.943,45.282 -100.943,100.942 0,55.661 45.283,100.944 100.943,100.944 42.744,0 79.369,-26.709 94.063,-64.313 h 2.669 c -0.461,1.214 -0.943,2.421 -1.452,3.621 -5.208,12.314 -12.664,23.373 -22.16,32.869 -9.497,9.497 -20.556,16.952 -32.869,22.161 -12.749,5.393 -26.292,8.127 -40.251,8.127 -13.961,0 -27.503,-2.734 -40.252,-8.127 -12.314,-5.209 -23.373,-12.664 -32.869,-22.161 -9.496,-9.496 -16.952,-20.555 -22.161,-32.869 -5.393,-12.75 -8.127,-26.293 -8.127,-40.252 0,-13.959 2.734,-27.502 8.127,-40.252 5.209,-12.313 12.665,-23.372 22.161,-32.869 9.496,-9.496 20.555,-16.951 32.869,-22.16 12.749,-5.392 26.291,-8.127 40.252,-8.127 13.959,0 27.502,2.735 40.251,8.127 12.313,5.209 23.372,12.664 32.869,22.16 9.496,9.497 16.952,20.556 22.16,32.869 0.509,1.201 0.992,2.408 1.452,3.622 H 94.063 C 79.369,26.708 42.744,0 0,0"
             style="fill:#231f20;fill-opacity:1;fill-rule:nonzero;stroke:none"
             id="path152" />
        </g>
        <g
           id="g154"
           transform="translate(92.5205,157.1802)">
          <path
             d="m 0,0 c -2.771,0 -5.375,-0.502 -7.811,-1.505 -2.437,-1.003 -4.576,-2.377 -6.414,-4.12 -1.839,-1.744 -3.285,-3.774 -4.336,-6.091 -1.05,-2.318 -1.576,-4.813 -1.576,-7.489 0,-2.627 0.526,-5.099 1.576,-7.416 1.051,-2.317 2.497,-4.348 4.336,-6.091 1.838,-1.744 3.977,-3.117 6.414,-4.12 2.436,-1.003 5.04,-1.505 7.811,-1.505 2.77,0 5.374,0.502 7.81,1.505 2.436,1.003 4.562,2.376 6.378,4.12 1.814,1.743 3.248,3.774 4.299,6.091 1.05,2.317 1.576,4.789 1.576,7.416 0,2.676 -0.526,5.171 -1.576,7.489 -1.051,2.317 -2.485,4.347 -4.299,6.091 -1.816,1.743 -3.942,3.117 -6.378,4.12 C 5.374,-0.502 2.77,0 0,0 m 26.656,-19.205 c 0,-3.487 -0.706,-6.783 -2.113,-9.888 -1.41,-3.106 -3.321,-5.817 -5.734,-8.133 -2.413,-2.318 -5.231,-4.145 -8.455,-5.482 C 7.13,-44.046 3.678,-44.715 0,-44.715 c -3.68,0 -7.143,0.669 -10.391,2.007 -3.25,1.337 -6.08,3.164 -8.492,5.482 -2.413,2.316 -4.324,5.027 -5.732,8.133 -1.409,3.105 -2.114,6.401 -2.114,9.888 0,3.536 0.705,6.855 2.114,9.961 1.408,3.105 3.319,5.816 5.732,8.133 2.412,2.317 5.242,4.144 8.492,5.482 3.248,1.337 6.711,2.006 10.391,2.006 3.678,0 7.13,-0.669 10.354,-2.006 3.224,-1.338 6.042,-3.165 8.455,-5.482 2.413,-2.317 4.324,-5.028 5.734,-8.133 1.407,-3.106 2.113,-6.425 2.113,-9.961"
             style="fill:#231f20;fill-opacity:1;fill-rule:nonzero;stroke:none"
             id="path156" />
        </g>
        <g
           id="g158"
           transform="translate(143.0752,140.627)">
          <path
             d="m 0,0 c -1.863,0.382 -3.643,0.346 -5.338,-0.107 -1.697,-0.455 -3.189,-1.195 -4.48,-2.222 -1.289,-1.027 -2.317,-2.293 -3.08,-3.797 -0.765,-1.505 -1.147,-3.142 -1.147,-4.909 v -13.902 c 0,-0.908 -0.322,-1.672 -0.968,-2.292 -0.644,-0.622 -1.445,-0.933 -2.4,-0.933 h -3.153 v 17.485 c 0,2.914 0.704,5.613 2.114,8.098 1.409,2.483 3.284,4.501 5.625,6.055 2.341,1.552 5.04,2.544 8.098,2.974 3.056,0.429 6.234,0.023 9.53,-1.219 C 4.801,3.082 4.311,1.612 3.332,0.824 2.353,0.037 1.241,-0.239 0,0"
             style="fill:#231f20;fill-opacity:1;fill-rule:nonzero;stroke:none"
             id="path160" />
        </g>
        <g
           id="g162"
           transform="translate(175.2774,114.0425)">
          <path
             d="m 0,0 c -0.525,-1.051 -1.409,-1.577 -2.651,-1.577 h -5.661 c 0.812,1.481 1.875,3.452 3.189,5.912 1.313,2.46 2.746,5.16 4.299,8.097 1.552,2.938 3.189,6.007 4.909,9.208 1.72,3.2 3.368,6.306 4.945,9.316 0.859,1.527 2.149,2.293 3.869,2.293 h 4.872 z m -9.602,3.296 -16.051,29.953 h 4.873 c 0.812,0 1.563,-0.204 2.258,-0.609 0.691,-0.407 1.228,-0.968 1.612,-1.684 0.238,-0.478 0.644,-1.254 1.218,-2.329 0.572,-1.075 1.217,-2.281 1.934,-3.619 0.717,-1.338 1.47,-2.735 2.258,-4.192 0.788,-1.458 1.505,-2.795 2.148,-4.012 0.646,-1.219 1.195,-2.246 1.649,-3.082 0.454,-0.836 0.727,-1.326 0.825,-1.469 0.094,-0.573 0.166,-1.099 0.215,-1.576 0.047,-0.43 0.059,-0.86 0.035,-1.29 -0.023,-0.43 -0.107,-0.765 -0.25,-1.003 z"
             style="fill:#231f20;fill-opacity:1;fill-rule:nonzero;stroke:none"
             id="path164" />
        </g>
        <g
           id="g166"
           transform="translate(196.7451,160.2613)">
          <path
             d="m 0,0 c 0,0.955 0.322,1.744 0.967,2.365 0.645,0.62 1.445,0.931 2.401,0.931 H 6.594 V -3.081 H 0 Z m 6.664,-44.571 c 0,-0.908 -0.322,-1.673 -0.967,-2.293 -0.645,-0.621 -1.445,-0.932 -2.4,-0.932 h -3.368 v 31.53 c 0,0.907 0.322,1.684 0.967,2.328 0.645,0.646 1.444,0.968 2.401,0.968 h 3.367 z"
             style="fill:#231f20;fill-opacity:1;fill-rule:nonzero;stroke:none"
             id="path168" />
        </g>
        <g
           id="g170"
           transform="translate(223.0078,145.149)">
          <path
             d="m 0,0 h 17.986 v -3.081 c 0,-0.908 -0.323,-1.684 -0.967,-2.329 -0.646,-0.645 -1.446,-0.967 -2.401,-0.967 H -4.013 v 2.508 c 0,1.098 0.395,2.017 1.183,2.758 C -2.042,-0.37 -1.099,0 0,0 M 3.798,18.632 H 20.494 V 15.55 c 0,-0.907 -0.322,-1.673 -0.968,-2.293 -0.644,-0.622 -1.445,-0.932 -2.4,-0.932 H 4.586 C 3.248,12.325 1.971,12.11 0.753,11.681 -0.466,11.251 -1.577,10.665 -2.58,9.925 -3.583,9.184 -4.442,8.3 -5.16,7.274 -5.876,6.246 -6.401,5.112 -6.735,3.87 -6.784,3.63 -6.832,3.428 -6.88,3.261 -6.927,3.093 -6.95,2.699 -6.95,2.079 v -2.974 c 0,-1.362 0.012,-3.344 0.035,-5.948 0.024,-2.604 0.035,-5.996 0.035,-10.175 v -15.658 h -3.367 c -0.957,0 -1.756,0.322 -2.4,0.968 -0.645,0.645 -0.967,1.421 -0.967,2.329 v 13.687 9.135 5.59 c 0,1.313 0.023,2.34 0.071,3.081 0.046,0.74 0.108,1.278 0.179,1.613 0.072,0.333 0.154,0.716 0.251,1.146 0.43,1.815 1.134,3.523 2.114,5.124 0.978,1.6 2.196,3.021 3.654,4.263 1.457,1.242 3.129,2.245 5.016,3.01 1.887,0.763 3.93,1.218 6.127,1.362"
             style="fill:#231f20;fill-opacity:1;fill-rule:nonzero;stroke:none"
             id="path172" />
        </g>
        <g
           id="g174"
           transform="translate(273.3623,109.1695)">
          <path
             d="M 0,0 C 0.096,0.24 0.154,0.43 0.18,0.574 0.203,0.717 0.227,1.099 0.252,1.72 0.275,2.341 0.287,3.308 0.287,4.622 0.287,5.935 0.275,7.906 0.252,10.534 0.227,13.16 0.216,16.576 0.216,20.78 v 15.765 h 3.368 c 0.906,0 1.684,-0.321 2.328,-0.967 C 6.558,34.934 6.88,34.156 6.88,33.249 V 19.635 10.534 4.944 C 6.88,3.606 6.855,2.568 6.809,1.827 6.761,1.088 6.713,0.55 6.665,0.215 6.617,-0.119 6.545,-0.501 6.45,-0.931 5.973,-2.984 5.184,-4.836 4.085,-6.484 2.986,-8.133 1.686,-9.554 0.18,-10.748 c -1.505,-1.194 -3.201,-2.138 -5.087,-2.831 -1.889,-0.692 -3.859,-1.087 -5.913,-1.183 h -0.035 0.072 -0.466 -1.685 -3.51 -5.984 v 3.082 c 0,0.908 0.323,1.673 0.967,2.293 0.645,0.622 1.445,0.932 2.4,0.932 h 7.812 c 1.336,0 2.614,0.215 3.833,0.644 1.219,0.43 2.33,1.016 3.333,1.756 1.003,0.741 1.862,1.625 2.579,2.651 C -0.787,-2.376 -0.286,-1.242 0,0 m -27.516,20.494 v 16.051 h 3.225 c 0.906,0 1.695,-0.321 2.365,-0.967 0.668,-0.644 1.002,-1.422 1.002,-2.329 V 20.78 c 0,-1.576 0.311,-3.045 0.932,-4.406 0.621,-1.362 1.457,-2.544 2.509,-3.547 1.049,-1.003 2.28,-1.805 3.69,-2.4 1.408,-0.599 2.902,-0.897 4.479,-0.897 0.81,0 1.599,0.072 2.364,0.215 1.242,0.239 2.352,-0.024 3.333,-0.787 0.978,-0.766 1.468,-1.769 1.468,-3.011 V 4.586 c -2.437,-0.908 -4.872,-1.361 -7.31,-1.361 -2.483,0 -4.812,0.453 -6.985,1.361 -2.175,0.907 -4.074,2.138 -5.697,3.69 -1.625,1.552 -2.915,3.379 -3.87,5.483 -0.956,2.101 -1.458,4.346 -1.505,6.735"
             style="fill:#231f20;fill-opacity:1;fill-rule:nonzero;stroke:none"
             id="path176" />
        </g>
      </g>
    </g>
  </g>
</svg>
